Coordinates
version=1
nRows=49
nColumns=12
inDegrees=yes

Units are S.I. units (second, meters, Newtons, ...)
Angles are in degrees

endheader
time	SC_y	SC_z	SC_x	AC_y	AC_z	AC_x	GH_y	GH_z	GH_yy	EL_x	PS_y
       0.0              -43.88          1.694          40.15          42.51         -9.928          17.07          76.83         -6.744          116.9          74.84           21.7
    0.0378              -43.88          1.698          40.15          42.51         -9.927          17.07          76.79         -6.731          116.9          74.85          21.72
    0.0756              -43.87          1.703          40.14          42.51         -9.927          17.07          76.75         -6.718          116.9          74.86          21.73
    0.1134              -43.87          1.708          40.14          42.51         -9.926          17.07          76.71         -6.704          116.8          74.87          21.75
    0.1512              -43.87          1.712          40.14          42.51         -9.925          17.07          76.67         -6.689          116.8          74.88          21.77
     0.189              -43.86          1.718          40.13          42.51         -9.924          17.07          76.62         -6.673          116.8          74.89          21.79
    0.2268              -43.86          1.723          40.13          42.51         -9.923          17.07          76.57         -6.656          116.8          74.91          21.81
    0.2646              -43.86          1.729          40.12          42.51         -9.922          17.07          76.52         -6.638          116.8          74.92          21.84
    0.3024              -43.85          1.736          40.12          42.51         -9.921          17.07          76.46         -6.618          116.7          74.93          21.86
    0.3402              -43.85          1.743          40.11          42.51          -9.92          17.07           76.4         -6.598          116.7          74.95          21.89
     0.378              -43.84           1.75          40.11          42.52         -9.919          17.07          76.34         -6.575          116.7          74.96          21.92
    0.4158              -43.84          1.758           40.1          42.52         -9.917          17.07          76.27         -6.551          116.7          74.98          21.95
    0.4536              -43.83          1.767           40.1          42.52         -9.916          17.07          76.19         -6.525          116.6           75.0          21.99
    0.4914              -43.83          1.776          40.09          42.52         -9.914          17.07          76.11         -6.497          116.6          75.02          22.02
    0.5292              -43.82          1.786          40.08          42.52         -9.913          17.07          76.02         -6.466          116.5          75.04          22.06
     0.567              -43.82          1.797          40.07          42.52         -9.911          17.07          75.93         -6.433          116.5          75.06          22.11
    0.6048              -43.81          1.809          40.07          42.52         -9.909          17.07          75.82         -6.398          116.5          75.09          22.15
    0.6426               -43.8          1.822          40.06          42.52         -9.907          17.07          75.71         -6.359          116.4          75.12          22.21
    0.6804              -43.79          1.837          40.05          42.52         -9.904          17.07          75.59         -6.316          116.4          75.15          22.26
    0.7182              -43.78          1.852          40.03          42.53         -9.902          17.07          75.45         -6.269          116.3          75.18          22.32
     0.756              -43.77          1.869          40.02          42.53         -9.899          17.07           75.3         -6.218          116.2          75.22          22.39
    0.7938              -43.76          1.888          40.01          42.53         -9.896          17.07          75.14         -6.161          116.2          75.26          22.46
    0.8316              -43.75          1.909          39.99          42.53         -9.892          17.07          74.96         -6.099          116.1           75.3          22.55
    0.8694              -43.73          1.932          39.97          42.53         -9.889          17.07          74.76          -6.03          116.0          75.35          22.64
    0.9072              -43.72          1.957          39.96          42.54         -9.884          17.07          74.53         -5.953          115.9           75.4          22.74
     0.945               -43.7          1.986          39.93          42.54          -9.88          17.07          74.28         -5.868          115.8          75.46          22.85
    0.9828              -43.68          2.017          39.91          42.54         -9.874          17.07          74.01         -5.772          115.7          75.53          22.98
     1.021              -43.66          2.053          39.88          42.55         -9.868          17.07          73.69         -5.664          115.6          75.61          23.12
     1.058              -43.63          2.094          39.85          42.55         -9.862          17.07          73.34         -5.542          115.4          75.69          23.28
     1.096              -43.61           2.14          39.82          42.55         -9.854          17.07          72.94         -5.403          115.2          75.79          23.46
     1.134              -43.57          2.192          39.78          42.56         -9.845          17.07          72.48         -5.245          115.0           75.9          23.67
     1.172              -43.54          2.253          39.74          42.57         -9.835          17.07          71.95         -5.064          114.8          76.03          23.91
      1.21              -43.49          2.322          39.69          42.57         -9.824          17.07          71.34         -4.854          114.5          76.18          24.18
     1.247              -43.45          2.403          39.63          42.58         -9.811          17.07          70.64         -4.611          114.2          76.35           24.5
     1.285              -43.39          2.498          39.56          42.59         -9.795          17.07          69.81         -4.326          113.9          76.55          24.88
     1.323              -43.32           2.61          39.47           42.6         -9.776          17.08          68.83          -3.99          113.5          76.79          25.32
     1.361              -43.24          2.742          39.37          42.62         -9.754          17.08          67.68         -3.591          113.0          77.07          25.85
     1.399              -43.14          2.901          39.26          42.63         -9.728          17.08          66.29         -3.113          112.4          77.41          26.48
     1.436              -43.02          3.093          39.11          42.65         -9.696          17.08          64.61         -2.534          111.7          77.82          27.24
     1.474              -42.88          3.328          38.94          42.68         -9.657          17.08          62.56         -1.828          110.8          78.32          28.17
     1.512               -42.7          3.618          38.73          42.71         -9.609          17.08          60.02        -0.9552          109.7          78.93          29.31
      1.55              -42.48           3.98          38.46          42.74          -9.55          17.09          56.86         0.1326          108.4           79.7          30.74
     1.588               -42.2          4.435          38.12          42.79         -9.474          17.09          52.89          1.503          106.7          80.67          32.55
     1.625              -41.85          5.014          37.69          42.85         -9.378          17.09          47.83          3.245          104.5           81.9          34.84
     1.663               -41.4          5.755          37.14          42.92         -9.256           17.1          41.35          5.475          101.7          83.48          37.77
     1.701              -40.82          6.706          36.44          43.02         -9.098          17.11          33.05          8.336          98.18           85.5          41.54
     1.739              -40.07          7.921          35.54          43.14         -8.897          17.12          22.44          11.99          93.64          88.08          46.34
     1.777              -39.14          9.449          34.41           43.3         -8.644          17.13          9.094          16.59          87.94          91.33          52.39
     1.814               -38.0          11.31          33.03          43.49         -8.336          17.15         -7.165          22.19          80.99          95.28          59.76
